{"title":"18+ Housewife 2018 UNCENSORED Movies 720p HDRip x264 AAC MSubs +","magnet":"magnet:?xt=urn:btih:3170d33187b59039a293a7d83530632c7f5d2dc7&dn=18%2B+Housewife+2018+UNCENSORED+Movies+720p+HDRip+x264+AAC+MSubs+%2B&tr=udp%3A%2F%2Ftracker.leechers-paradise.org%3A6969&tr=udp%3A%2F%2Fzer0day.ch%3A1337&tr=udp%3A%2F%2Fopen.demonii.com%3A1337&tr=udp%3A%2F%2Ftracker.coppersurfer.tk%3A6969&tr=udp%3A%2F%2Fexodus.desync.com%3A6969","uploader":"basicssom","categoryP":"video","categoryS":"hd___movies","size":"820216792","seeders":"23","leechers":"59","description":"18+ Housewife 2018 UNCENSORED Movies 720p HDRip x264 AAC MSubs with Sample &#x263B;rDX&#x263B;\r\n\r\nSCREEN SHOTS &amp; POSTER:\r\n   <a href=\"\nhttps://iphonehosting.eu/2018/9/a/homeloan/index.html\" rel=\"nofollow\" target=\"_NEW\">\nhttps://iphonehosting.eu/2018/9/a/homeloan/index.html</a> <a href=\"\nhttps://iphonehosting.eu/2018/9/a/homeloan/1.html\" rel=\"nofollow\" target=\"_NEW\">\nhttps://iphonehosting.eu/2018/9/a/homeloan/1.html</a> <a href=\"\nhttps://iphonehosting.eu/2018/9/a/homeloan/2.html\" rel=\"nofollow\" target=\"_NEW\">\nhttps://iphonehosting.eu/2018/9/a/homeloan/2.html</a>   <a href=\"\nhttps://iphonehosting.eu/2018/9/a/homeloan/3.html\" rel=\"nofollow\" target=\"_NEW\">\nhttps://iphonehosting.eu/2018/9/a/homeloan/3.html</a>   <a href=\"\nhttps://iphonehosting.eu/2018/9/a/homeloan/4.html\" rel=\"nofollow\" target=\"_NEW\">\nhttps://iphonehosting.eu/2018/9/a/homeloan/4.html</a>   <a href=\"\nhttps://iphonehosting.eu/2018/9/a/homeloan/5.html\" rel=\"nofollow\" target=\"_NEW\">\nhttps://iphonehosting.eu/2018/9/a/homeloan/5.html</a>   <a href=\"\nhttps://iphonehosting.eu/2018/9/a/homeloan/6.html\" rel=\"nofollow\" target=\"_NEW\">\nhttps://iphonehosting.eu/2018/9/a/homeloan/6.html</a>   <a href=\"\nhttps://iphonehosting.eu/2018/9/a/homeloan/7.html\" rel=\"nofollow\" target=\"_NEW\">\nhttps://iphonehosting.eu/2018/9/a/homeloan/7.html</a>   <a href=\"\nhttps://iphonehosting.eu/2018/9/a/homeloan/8.html\" rel=\"nofollow\" target=\"_NEW\">\nhttps://iphonehosting.eu/2018/9/a/homeloan/8.html</a>   <a href=\"\nhttps://iphonehosting.eu/2018/9/a/homeloan/9.html\" rel=\"nofollow\" target=\"_NEW\">\nhttps://iphonehosting.eu/2018/9/a/homeloan/9.html</a>   <a href=\"\nhttps://iphonehosting.eu/2018/9/a/homeloan/10.html\" rel=\"nofollow\" target=\"_NEW\">\nhttps://iphonehosting.eu/2018/9/a/homeloan/10.html</a>\r\n\r\nFile size                                : 772 MiB\r\nDuration                                 : 1 h 22 min\r\nOverall bit rate                         : 1 312 kb/s\r\nMovie name                               : Housewife 2018 Movies 720p HDRip x264 AAC MSubs &#x263B;rDX&#x263B;\r\n\r\nVideo\r\nID                                       : 2\r\nFormat                                   : AVC\r\nFormat/Info                              : Advanced Video Codec\r\nFormat profile                           : Main@L3.1\r\nFormat settings, CABAC                   : Yes\r\nFormat settings, ReFrames                : 2 frames\r\nFormat settings, GOP                     : M=1, N=12\r\nCodec ID                                 : V_MPEG4/ISO/AVC\r\nDuration                                 : 1 h 22 min\r\nBit rate mode                            : Constant\r\nBit rate                                 : 1 249 kb/s\r\nWidth                                    : 1 280 pixels\r\nHeight                                   : 582 pixels\r\nDisplay aspect ratio                     : 2.2:1\r\nFrame rate mode                          : Constant\r\nFrame rate                               : 24.000 FPS\r\nColor space                              : YUV\r\nChroma subsampling                       : 4:2:0\r\nBit depth                                : 8 bits\r\nScan type                                : Progressive\r\nBits/(Pixel*Frame)                       : 0.070\r\nStream size                              : 719 MiB (93%)\r\nTitle                                    : &#x263B;rDX&#x263B;\r\nDefault                                  : Yes\r\nForced                                   : No\r\n\r\nAudio\r\nID                                       : 1\r\nFormat                                   : MPEG Audio\r\nFormat version                           : Version 1\r\nFormat profile                           : Layer 3\r\nMode                                     : Joint stereo\r\nMode extension                           : MS Stereo\r\nCodec ID                                 : A_MPEG/L3\r\nCodec ID/Hint                            : MP3\r\nDuration                                 : 1 h 22 min\r\nBit rate mode                            : Constant\r\nBit rate                                 : 64.0 kb/s\r\nChannel(s)                               : 2 channels\r\nSampling rate                            : 44.1 kHz\r\nCompression mode                         : Lossy\r\nStream size                              : 37.7 MiB (5%)\r\nTitle                                    : &#x263B;rDX&#x263B;\r\nDefault                                  : Yes\r\nForced                                   : No\r\n <a href=\"\nhttps://www.imdb.com/title/tt6464678/\" rel=\"nofollow\" target=\"_NEW\">\nhttps://www.imdb.com/title/tt6464678/</a>","last_updated":"2018-10-03T12:17:19.698Z","parsed":{"xt":"urn:btih:3170d33187b59039a293a7d83530632c7f5d2dc7","dn":"18  Housewife 2018 UNCENSORED Movies 720p HDRip x264 AAC MSubs  ","tr":["udp://exodus.desync.com:6969","udp://open.demonii.com:1337","udp://tracker.coppersurfer.tk:6969","udp://tracker.leechers-paradise.org:6969","udp://zer0day.ch:1337"],"infoHash":"3170d33187b59039a293a7d83530632c7f5d2dc7","infoHashBuffer":{"type":"Buffer","data":[49,112,211,49,135,181,144,57,162,147,167,216,53,48,99,44,127,93,45,199]},"name":"18  Housewife 2018 UNCENSORED Movies 720p HDRip x264 AAC MSubs  ","announce":["udp://exodus.desync.com:6969","udp://open.demonii.com:1337","udp://tracker.coppersurfer.tk:6969","udp://tracker.leechers-paradise.org:6969","udp://zer0day.ch:1337"],"urlList":[]}}